<?xml version="1.0" standalone="no"?><!DOCTYPE svg PUBLIC "-//W3C//DTD SVG 1.1//EN" "http://www.w3.org/Graphics/SVG/1.1/DTD/svg11.dtd"><svg height="800" width="500" version="1.1" xmlns="http://www.w3.org/2000/svg" xmlns:xlink="http://www.w3.org/1999/xlink"><defs xmlns="http://www.w3.org/1999/xhtml"><style type="text/css"><![CDATA[
svg { background: rgb(241, 243, 245); }]]></style></defs><g transform="translate(150,140)"><circle r="44.55149477225064" cx="60" cy="20" fill="#00CD83"/><circle r="22.276618874714487" cx="200" cy="20" fill="#E8D245"/><circle r="40.40703085929699" cx="60" cy="155" fill="#00CD83"/><circle r="25.176262051401636" cx="200" cy="155" fill="#E8D245"/><circle r="41.48294375516104" cx="60" cy="290" fill="#00CD83"/><circle r="28.710315320815056" cx="200" cy="290" fill="#E8D245"/><circle r="44.48565725195889" cx="60" cy="425" fill="#00CD83"/><circle r="29.52549837039199" cx="200" cy="425" fill="#E8D245"/><circle r="50" cx="60" cy="560" fill="#00CD83"/><circle r="31.089682974064612" cx="200" cy="560" fill="#E8D245"/><text text-anchor="end" x="60" y="20" dy=".35em" dx=".70em" style="fill: rgb(255, 255, 255); font-family: &quot;Noto Sans&quot;; font-size: 12px;">331</text><text text-anchor="end" x="200" y="20" dy=".35em" dx=".70em" style="fill: rgb(255, 255, 255); font-family: &quot;Noto Sans&quot;; font-size: 12px;">79</text><text text-anchor="end" x="60" y="155" dy=".35em" dx=".70em" style="fill: rgb(255, 255, 255); font-family: &quot;Noto Sans&quot;; font-size: 12px;">271</text><text text-anchor="end" x="200" y="155" dy=".35em" dx=".70em" style="fill: rgb(255, 255, 255); font-family: &quot;Noto Sans&quot;; font-size: 12px;">102</text><text text-anchor="end" x="60" y="290" dy=".35em" dx=".70em" style="fill: rgb(255, 255, 255); font-family: &quot;Noto Sans&quot;; font-size: 12px;">286</text><text text-anchor="end" x="200" y="290" dy=".35em" dx=".70em" style="fill: rgb(255, 255, 255); font-family: &quot;Noto Sans&quot;; font-size: 12px;">134</text><text text-anchor="end" x="60" y="425" dy=".35em" dx=".70em" style="fill: rgb(255, 255, 255); font-family: &quot;Noto Sans&quot;; font-size: 12px;">330</text><text text-anchor="end" x="200" y="425" dy=".35em" dx=".70em" style="fill: rgb(255, 255, 255); font-family: &quot;Noto Sans&quot;; font-size: 12px;">142</text><text text-anchor="end" x="60" y="560" dy=".35em" dx=".70em" style="fill: rgb(255, 255, 255); font-family: &quot;Noto Sans&quot;; font-size: 12px;">419</text><text text-anchor="end" x="200" y="560" dy=".35em" dx=".70em" style="fill: rgb(255, 255, 255); font-family: &quot;Noto Sans&quot;; font-size: 12px;">158</text><g class="axis x-axis" transform="translate(0,0)" fill="none" font-size="10" font-family="sans-serif" text-anchor="middle"><path class="domain" stroke="#000" d="M60.5,-6V0.5H200.5V-6"/><g class="tick" opacity="1" transform="translate(60,0)"><line stroke="#000" y2="-6" x1="0.5" x2="0.5"/><text fill="#000" y="-50" x="0" dy="0em" transform="rotate(0)" style="font-family: &quot;Noto Sans&quot;; font-size: 14px;">category_a</text></g><g class="tick" opacity="1" transform="translate(200,0)"><line stroke="#000" y2="-6" x1="0.5" x2="0.5"/><text fill="#000" y="-50" x="0" dy="0em" transform="rotate(0)" style="font-family: &quot;Noto Sans&quot;; font-size: 14px;">category_b</text></g></g><g class="axis y-axis" transform="translate(0,0)" fill="none" font-size="10" font-family="sans-serif" text-anchor="end" style="font-family: &quot;Noto Sans&quot;; font-size: 14px;"><path class="domain" stroke="#000" d="M-6,560.5H0.5V20.5H-6"/><g class="tick" opacity="1" transform="translate(0,560)"><line stroke="#000" x2="-6" y1="0.5" y2="0.5"/><text fill="#000" x="-9" y="0.5" dy="0.32em">E</text></g><g class="tick" opacity="1" transform="translate(0,425)"><line stroke="#000" x2="-6" y1="0.5" y2="0.5"/><text fill="#000" x="-9" y="0.5" dy="0.32em">D</text></g><g class="tick" opacity="1" transform="translate(0,290)"><line stroke="#000" x2="-6" y1="0.5" y2="0.5"/><text fill="#000" x="-9" y="0.5" dy="0.32em">C</text></g><g class="tick" opacity="1" transform="translate(0,155)"><line stroke="#000" x2="-6" y1="0.5" y2="0.5"/><text fill="#000" x="-9" y="0.5" dy="0.32em">B</text></g><g class="tick" opacity="1" transform="translate(0,20)"><line stroke="#000" x2="-6" y1="0.5" y2="0.5"/><text fill="#000" x="-9" y="0.5" dy="0.32em">A</text></g></g></g></svg>